<?xml version="1.0" encoding="iso-8859-1"?>
<!-- Generator: Adobe Illustrator 18.1.1, SVG Export Plug-In . SVG Version: 6.00 Build 0)  -->
<svg version="1.1" id="Capa_1" xmlns="http://www.w3.org/2000/svg" xmlns:xlink="http://www.w3.org/1999/xlink" x="0px" y="0px"
	 viewBox="0 0 13.221 13.221" style="enable-background:new 0 0 13.221 13.221;" xml:space="preserve">
<g>
	<g>
		<path style="fill:#030104;" d="M3.756,0H1.523C1.029,0,0.629,0.4,0.629,0.894v11.434c0,0.493,0.4,0.893,0.894,0.893h2.233
			c0.494,0,0.894-0.399,0.894-0.893V0.894C4.651,0.4,4.251,0,3.756,0z"/>
		<path style="fill:#030104;" d="M11.698,0H9.464C8.971,0,8.57,0.4,8.57,0.894v11.434c0,0.493,0.4,0.893,0.894,0.893h2.234
			c0.494,0,0.894-0.399,0.894-0.893V0.894C12.591,0.4,12.192,0,11.698,0z"/>
	</g>
</g>
<g>
</g>
<g>
</g>
<g>
</g>
<g>
</g>
<g>
</g>
<g>
</g>
<g>
</g>
<g>
</g>
<g>
</g>
<g>
</g>
<g>
</g>
<g>
</g>
<g>
</g>
<g>
</g>
<g>
</g>
</svg>
